<svg xmlns="http://www.w3.org/2000/svg" data-name="Fill Lineal" viewBox="0 0 64 64"><path fill="#4995b7" d="m30.15 54.39 15.67-22.98L61.5 54.39H30.15zM28 17.01 2.5 54.39h27.65l11.67-17.12L28 17.01z"/><path fill="#efedd8" d="m53.5 42.93.12-.1-7.8-11.42-7.57 11.09 2.53 3.41 3.78-4.68 5.85 5.4 3.09-3.7zM35.28 37.7l4.09-4.03L28 17.01 16.28 34.19l5.15-.56 2.49 4.85 4.98-5.64 6.38 4.86z"/><circle cx="11.68" cy="11.68" r="9.18" fill="#ffd708"/><circle cx="18.04" cy="45.24" r="2.34" fill="#fff"/><path fill="#101b2d" d="M2.5 56.39h59a2 2 0 0 0 1.65-3.13L55.27 41.7l-7.79-11.42a2 2 0 0 0-1.66-.87 2 2 0 0 0-1.65.87l-2.35 3.44-12.17-17.84a2 2 0 0 0-3.3 0L.85 53.26a2 2 0 0 0 1.65 3.13zm31.43-4L38.32 46l.85 1.15a2 2 0 0 0 3.17.07l2.43-3 4.28 4a2 2 0 0 0 1.36.53h.13a2 2 0 0 0 1.46-.84l1.49-1.79 4.27 6.27zm17.17-9.7-.88 1-4.3-4a2 2 0 0 0-1.36-.53h-.15A2 2 0 0 0 43 40l-2.15 2.67-.14-.18L43.07 39l.41-.59L45.82 35zm-14.32-9.27-1.67 1.64-5-3.81a2 2 0 0 0-1.21-.4 2 2 0 0 0-1.5.67l-3 3.44-1.15-2.25a2 2 0 0 0-2-1.07l-.83.09L28 20.56zm-19.37 2.66 2.87-.31 1.86 3.62a2 2 0 0 0 1.53 1.07h.25a2 2 0 0 0 1.5-.68l3.75-4.24 4.9 3.73a2 2 0 0 0 2.61-.17l2.39-2.34.33.49-10.31 15.14H6.29zm-5.73-13.22A11.18 11.18 0 1 0 .5 11.68a11.2 11.2 0 0 0 11.18 11.18zm0-18.36a7.18 7.18 0 1 1-7.18 7.18 7.19 7.19 0 0 1 7.18-7.18z"/></svg>